<?xml version="1.0" encoding="UTF-8"?>
<svg xmlns="http://www.w3.org/2000/svg" width="233.099" height="51.996" viewBox="0 0 233.099 51.996">
  <g id="Group_2448" data-name="Group 2448" transform="translate(-0.063)">
    <rect id="Rectangle_664" data-name="Rectangle 664" width="28.105" height="5.615" rx="2.807" transform="translate(0.066 0)" fill="#2400a2"></rect>
    <path id="Path_5336" data-name="Path 5336" d="M26.77,77.13H1.778A1.559,1.559,0,0,0,.22,78.688v26.705a1.559,1.559,0,0,0,1.558,1.558h2.5a1.559,1.559,0,0,0,1.558-1.558v-9.51a19.848,19.848,0,0,1,.885-5.937,11.668,11.668,0,0,1,10.56-7.2h9.49a1.559,1.559,0,0,0,1.558-1.558v-2.5a1.559,1.559,0,0,0-1.558-1.558Z" transform="translate(-0.157 -54.956)" fill="#2400a2"></path>
    <rect id="Rectangle_665" data-name="Rectangle 665" width="5.615" height="29.471" rx="2.807" transform="translate(37.023 22.174)" fill="#2400a2"></rect>
    <path id="Path_5337" data-name="Path 5337" d="M150.326,31.659l.02-.009a17.388,17.388,0,0,0,5.031-3.427l.037-.037a17.406,17.406,0,0,0,3.545-5.336,16.062,16.062,0,0,0,1.268-6.3,16.4,16.4,0,0,0-1.268-6.368,17.414,17.414,0,0,0-3.542-5.336.456.456,0,0,0-.037-.037,17.38,17.38,0,0,0-5.336-3.542A16.234,16.234,0,0,0,143.676,0H130.348a1.559,1.559,0,0,0-1.558,1.558v2.5a1.559,1.559,0,0,0,1.558,1.558h13.328a10.8,10.8,0,0,1,4.249.848,10.814,10.814,0,0,1,5.839,5.839,10.816,10.816,0,0,1,.848,4.252,10.563,10.563,0,0,1-.845,4.209,11.111,11.111,0,0,1-2.343,3.473,10.944,10.944,0,0,1-3.5,2.34,10.792,10.792,0,0,1-4.249.848H140a1.556,1.556,0,0,0-1.253,2.478l15.55,21.174a1.557,1.557,0,0,0,1.256.635h3.125a1.558,1.558,0,0,0,1.256-2.478l-10.482-14.3c-.012-.014-.02-.029-.032-.043a1.941,1.941,0,0,1-.431-1.259,1.883,1.883,0,0,1,.359-1.164,2.363,2.363,0,0,1,.986-.808Z" transform="translate(-91.764 0)" fill="#2400a2"></path>
    <path id="Path_5338" data-name="Path 5338" d="M347.832,7.976a8.192,8.192,0,0,1,2.57-1.719,8.209,8.209,0,0,1,6.333,0,7.945,7.945,0,0,1,4.289,4.289,7.945,7.945,0,0,1,.635,3.168,1.559,1.559,0,0,0,1.558,1.558h2.5a1.559,1.559,0,0,0,1.558-1.558,13.237,13.237,0,0,0-1.1-5.344,13.8,13.8,0,0,0-7.259-7.259,13.5,13.5,0,0,0-10.689,0,14.5,14.5,0,0,0-4.353,2.918,13.307,13.307,0,0,0-2.95,4.361,13.6,13.6,0,0,0-1.061,5.324,11.663,11.663,0,0,0,4.194,9,22.374,22.374,0,0,0,3.835,2.794c1.363.788,2.714,1.552,4.019,2.271s2.616,1.463,3.893,2.205a17.421,17.421,0,0,1,3.091,2.26,10.247,10.247,0,0,1,2.05,2.619,6.548,6.548,0,0,1,.716,3.145,1.559,1.559,0,0,0,1.558,1.558h2.5a1.559,1.559,0,0,0,1.558-1.558,12.955,12.955,0,0,0-4.445-9.74,21.52,21.52,0,0,0-4.034-3.024c-1.4-.816-2.817-1.607-4.206-2.349-1.322-.727-2.6-1.455-3.809-2.162a18.239,18.239,0,0,1-2.964-2.13,6.494,6.494,0,0,1-2.34-4.89,7.945,7.945,0,0,1,.635-3.168,8.209,8.209,0,0,1,1.719-2.57Z" transform="translate(-242.153 -0.007)" fill="#2400a2"></path>
    <path id="Path_5339" data-name="Path 5339" d="M353.568,136.418a7.837,7.837,0,0,1-3.168-.635,7.945,7.945,0,0,1-4.289-4.289,7.823,7.823,0,0,1-.635-3.165,1.561,1.561,0,0,0-1.558-1.558h-2.5a1.559,1.559,0,0,0-1.558,1.558,13.662,13.662,0,0,0,13.711,13.708,1.559,1.559,0,0,0,1.558-1.558v-2.5a1.559,1.559,0,0,0-1.558-1.558Z" transform="translate(-242.153 -90.325)" fill="#2400a2"></path>
    <path id="Path_5340" data-name="Path 5340" d="M502.633,10.031a28.926,28.926,0,0,0-2.159-2.418,25.611,25.611,0,0,0-28.3-5.546,24.859,24.859,0,0,0-8.268,5.54,26.041,26.041,0,0,0-5.537,8.194c0,.006-.006.012-.006.017a26.269,26.269,0,0,0,.006,20.084c0,.006.006.012.006.017a27.976,27.976,0,0,0,5.511,8.231l.046.046a28.014,28.014,0,0,0,8.231,5.511c.006,0,.012.006.017.006a25.684,25.684,0,0,0,10.045,2,1.559,1.559,0,0,0,1.558-1.558v-2.5a1.559,1.559,0,0,0-1.558-1.558,19.727,19.727,0,0,1-7.854-1.575,20.411,20.411,0,0,1-10.813-10.813,20.366,20.366,0,0,1,0-15.709,20.427,20.427,0,0,1,10.81-10.81,20.388,20.388,0,0,1,17.413.8,20.716,20.716,0,0,1,7.141,6.394,1.554,1.554,0,0,0,1.279.67h2.915a1.558,1.558,0,0,0,1.348-2.337,22.288,22.288,0,0,0-1.828-2.685Z" transform="translate(-325.167 0)" fill="#2400a2"></path>
    <path id="Path_5341" data-name="Path 5341" d="M680.786,15.8a24.588,24.588,0,0,0-5.537-8.194,25.611,25.611,0,0,0-28.3-5.54,24.831,24.831,0,0,0-8.268,5.54,26.042,26.042,0,0,0-5.537,8.194c0,.006-.006.012-.006.017a26.27,26.27,0,0,0,.006,20.084c0,.006.006.012.006.017a27.976,27.976,0,0,0,5.511,8.231l.046.046a28.014,28.014,0,0,0,8.231,5.511c.006,0,.011.006.017.006a26.269,26.269,0,0,0,20.084.006c.006,0,.011-.006.017-.006a26.041,26.041,0,0,0,8.194-5.537,24.859,24.859,0,0,0,5.54-8.268,24.645,24.645,0,0,0,2.067-10.048,24.637,24.637,0,0,0-2.07-10.054ZM657,46.094a19.726,19.726,0,0,1-7.854-1.575,20.412,20.412,0,0,1-10.813-10.813,20.383,20.383,0,0,1,0-15.709,20.427,20.427,0,0,1,10.81-10.81,20.366,20.366,0,0,1,15.709,0A20.412,20.412,0,0,1,675.668,18a20.366,20.366,0,0,1,0,15.709,20.412,20.412,0,0,1-10.813,10.813A19.776,19.776,0,0,1,657,46.1Z" transform="translate(-449.699 0)" fill="#2400a2"></path>
    <path id="Path_5342" data-name="Path 5342" d="M279.588,40.364c1.952.023,3-1.127,3.05-3.5.06-2.567.014-5.137.014-7.708,0-2.651.046-20.889-.014-23.537-.052-2.26-1.236-3.62-3.059-3.553-2.248.083-3.042,1.573-3.056,3.559-.037,5.218-.034,26.027,0,31.245.012,2,.762,3.467,3.065,3.493Z" transform="translate(-197.006 -1.469)" fill="#ff602e"></path>
    <path id="Path_5343" data-name="Path 5343" d="M279,153.191a3.3,3.3,0,0,0-3.231,3.47,3.222,3.222,0,0,0,3.257,3.174,3.363,3.363,0,0,0,3.4-3.326,3.4,3.4,0,0,0-3.424-3.321Z" transform="translate(-196.483 -109.147)" fill="#ff602e"></path>
    <path id="Path_5344" data-name="Path 5344" d="M655.133,81.818c-.02,1.952,1.11,3,3.447,3.05,2.527.06,5.057.014,7.584.014,2.608,0,20.556.046,23.16-.014,2.225-.052,3.562-1.236,3.5-3.059-.083-2.248-1.547-3.042-3.5-3.056-5.135-.037-25.61-.035-30.747,0-1.966.011-3.413.762-3.438,3.065Z" transform="translate(-466.785 -56.093)" fill="#ff602e"></path>
  </g>
</svg>
